<?xml version="1.0" standalone="no"?>
<!DOCTYPE svg PUBLIC "-//W3C//DTD SVG 20010904//EN"
 "http://www.w3.org/TR/2001/REC-SVG-20010904/DTD/svg10.dtd">
<svg version="1.0" xmlns="http://www.w3.org/2000/svg"
 width="840.000000pt" height="840.000000pt" viewBox="0 0 840.000000 840.000000"
 preserveAspectRatio="xMidYMid meet">
<metadata>
Created by potrace 1.11, written by Peter Selinger 2001-2013
</metadata>
<g transform="translate(0.000000,840.000000) scale(0.100000,-0.100000)"
fill="#000000" stroke="none">
<path d="M1440 6270 c-17 -18 -31 -41 -31 -51 -1 -10 -2 -22 -3 -26 -4 -16
-20 -98 -21 -108 -1 -18 -17 -119 -21 -140 -3 -11 -7 -39 -10 -61 -2 -23 -7
-53 -10 -65 -3 -13 -7 -41 -9 -63 -3 -21 -9 -64 -15 -95 -5 -31 -12 -74 -15
-96 -4 -22 -8 -51 -10 -65 -2 -14 -9 -54 -14 -90 -6 -36 -13 -83 -16 -105 -2
-22 -7 -51 -10 -65 -3 -14 -8 -43 -11 -65 -2 -22 -7 -53 -10 -70 -3 -16 -7
-41 -9 -55 -9 -62 -18 -117 -21 -135 -2 -11 -7 -40 -10 -65 -3 -25 -7 -56 -10
-70 -2 -14 -7 -41 -10 -60 -3 -19 -7 -46 -10 -60 -2 -14 -7 -44 -10 -66 -2
-23 -7 -53 -10 -65 -2 -13 -7 -39 -9 -56 -3 -18 -8 -50 -11 -70 -3 -21 -7 -51
-9 -68 -4 -30 -23 -149 -31 -195 -2 -14 -7 -43 -9 -65 -3 -22 -7 -47 -10 -55
-2 -8 -7 -39 -10 -69 -4 -30 -9 -63 -11 -75 -2 -12 -6 -37 -9 -56 -3 -19 -7
-46 -10 -60 -3 -14 -8 -45 -11 -70 -3 -25 -7 -52 -9 -60 -3 -8 -7 -40 -10 -70
-4 -30 -8 -57 -10 -60 -2 -3 -6 -28 -9 -56 -4 -27 -8 -60 -11 -74 -2 -14 -7
-43 -10 -65 -3 -23 -7 -50 -9 -61 -2 -12 -7 -45 -11 -74 -8 -66 -41 -175 -63
-209 -49 -76 -92 -95 -241 -106 -76 -6 -95 -22 -68 -59 16 -21 77 -23 357 -11
102 4 190 7 195 7 479 -23 565 -19 565 21 0 25 -17 36 -60 41 -25 3 -72 8
-105 11 -32 4 -67 9 -77 11 -10 2 -27 6 -39 9 -40 8 -84 41 -101 75 -14 27
-16 53 -13 129 5 101 12 179 20 221 3 14 7 45 10 69 3 23 7 55 9 70 3 14 7 49
11 76 3 28 8 63 11 79 3 16 7 48 9 70 2 23 10 88 19 146 17 123 23 169 37 270
5 41 12 91 14 110 3 19 7 55 10 80 2 25 6 54 9 66 2 12 7 45 11 74 4 29 8 60
10 69 1 9 6 43 9 76 4 33 9 71 12 85 2 14 7 41 9 60 12 99 16 128 21 160 3 19
7 57 10 84 3 28 9 56 13 64 8 15 10 11 213 -408 55 -113 131 -268 168 -345
123 -254 200 -417 200 -425 0 -4 7 -13 15 -20 8 -6 14 -15 13 -18 -1 -4 13
-36 32 -72 19 -36 34 -67 35 -70 0 -3 12 -25 25 -50 13 -25 24 -47 25 -50 0
-3 4 -11 9 -19 10 -16 50 -92 204 -391 175 -341 210 -392 252 -370 37 20 41
27 370 704 145 301 178 371 178 380 0 5 4 12 9 15 7 5 78 146 82 163 1 4 28
61 60 125 33 65 90 183 129 263 38 80 109 226 157 325 48 99 100 208 116 243
25 54 47 79 50 55 0 -5 2 -15 3 -23 2 -8 7 -41 10 -74 4 -32 9 -68 11 -80 2
-11 6 -41 9 -66 4 -25 8 -56 11 -70 4 -24 9 -62 21 -160 3 -25 7 -56 10 -70 2
-14 7 -47 10 -75 3 -27 8 -61 10 -75 3 -14 7 -45 10 -70 2 -25 7 -56 9 -70 3
-14 7 -50 10 -80 4 -30 8 -62 10 -70 2 -8 7 -35 10 -60 6 -55 14 -115 20 -155
3 -16 7 -50 10 -75 3 -25 7 -56 10 -70 2 -14 7 -50 11 -80 4 -30 8 -64 9 -75
14 -104 27 -194 30 -215 2 -14 9 -63 15 -110 6 -47 14 -98 16 -115 8 -42 12
-171 7 -198 -3 -12 -19 -31 -36 -42 -16 -11 -32 -29 -33 -41 -7 -48 105 -58
741 -69 384 -7 422 -4 431 31 4 14 4 27 2 30 -8 8 -48 14 -123 19 -75 5 -210
36 -261 60 -53 25 -112 105 -129 175 -2 8 -9 31 -15 50 -9 30 -46 242 -65 373
-3 20 -7 53 -10 72 -8 58 -15 99 -19 125 -4 22 -10 60 -21 145 -9 65 -16 114
-20 140 -11 64 -15 91 -20 128 -8 57 -14 100 -19 127 -3 14 -7 43 -10 65 -13
102 -16 122 -22 155 -3 19 -7 46 -9 60 -6 42 -35 233 -40 260 -2 14 -7 45 -9
70 -3 25 -8 56 -11 70 -3 14 -8 45 -11 70 -9 86 -13 115 -14 115 -3 0 -17 92
-26 160 -4 32 -14 97 -20 130 -2 11 -7 45 -10 75 -3 30 -7 62 -9 70 -5 18 -12
59 -20 120 -3 25 -8 56 -10 70 -3 14 -7 42 -10 63 -12 88 -16 115 -25 167 -5
30 -11 75 -14 100 -4 25 -8 54 -10 65 -2 11 -7 40 -11 65 -4 25 -12 51 -17 58
-6 6 -7 12 -2 12 11 0 -25 25 -48 33 -34 12 -75 -40 -147 -186 -206 -423 -295
-610 -293 -619 1 -5 -2 -8 -8 -8 -5 0 -10 -4 -10 -9 0 -10 -134 -294 -151
-321 -5 -8 -12 -22 -15 -30 -15 -33 -207 -435 -305 -636 -27 -55 -49 -106 -49
-112 0 -7 -4 -12 -10 -12 -5 0 -10 -4 -10 -9 0 -5 -28 -67 -62 -137 -34 -71
-62 -132 -62 -136 -1 -4 -7 -13 -13 -20 -7 -6 -13 -16 -13 -20 0 -10 -61 -140
-131 -281 -27 -54 -49 -104 -49 -111 0 -8 -6 -16 -14 -19 -15 -6 -9 -18 -274
523 -79 162 -194 396 -255 520 -61 124 -112 227 -112 230 -1 3 -42 88 -93 190
-51 102 -92 191 -92 198 0 7 -3 12 -8 12 -4 0 -14 15 -21 33 -47 107 -451 916
-467 934 -33 38 -61 38 -94 3z"/>
<path d="M7690 6251 c-42 -25 -282 -32 -995 -32 -324 0 -721 2 -881 6 l-290 6
-12 -25 c-17 -38 4 -56 68 -61 169 -12 207 -19 262 -46 65 -33 101 -94 115
-196 10 -74 10 -2449 0 -2608 -14 -228 -35 -321 -84 -382 -29 -35 -76 -48
-218 -57 -52 -4 -72 -13 -78 -37 -4 -13 2 -25 19 -36 22 -14 57 -15 317 -8
326 9 301 9 739 -1 174 -3 333 -3 352 0 42 8 61 35 43 59 -12 16 -29 19 -217
32 -120 9 -160 21 -196 61 -68 73 -86 255 -88 869 0 160 -4 293 -9 296 -10 7
-12 403 -2 419 5 8 98 10 333 5 356 -6 375 -7 444 -32 40 -14 143 -83 124 -83
-4 0 2 -10 14 -22 11 -12 21 -30 21 -40 2 -22 3 -27 12 -53 4 -11 9 -44 11
-73 5 -58 19 -82 46 -82 31 0 40 25 45 116 2 49 7 141 10 204 3 63 7 126 10
140 3 14 7 45 10 70 5 43 8 61 20 143 7 44 -1 77 -20 77 -7 0 -29 -18 -48 -39
-72 -80 -127 -91 -487 -97 -151 -3 -328 -6 -394 -7 -78 -2 -124 2 -134 9 -15
11 -16 73 -17 593 0 319 4 594 8 611 10 38 -35 35 422 25 410 -9 420 -10 504
-45 49 -22 120 -87 122 -113 0 -6 3 -21 5 -32 5 -21 12 -92 13 -137 1 -36 33
-68 60 -61 30 8 37 38 46 213 9 181 15 243 31 310 20 84 24 118 17 136 -6 15
-50 18 -73 5z"/>
<path d="M556 1682 c-11 -10 -6 -50 7 -54 6 -2 1632 -4 3612 -4 l3600 1 -1 25
c-1 14 -2 28 -3 31 -1 8 -7208 9 -7215 1z"/>
</g>
</svg>
